<mxfile host="app.diagrams.net" modified="2021-04-18T16:04:28.522Z" agent="5.0 (Windows NT 10.0; Win64; x64) AppleWebKit/537.36 (KHTML, like Gecko) Chrome/89.0.4389.128 Safari/537.36 Edg/89.0.774.77" etag="iM8TZde1K-R7UfIa1xJB" version="14.6.1" type="github">
  <diagram id="prtHgNgQTEPvFCAcTncT" name="Page-1">
    <mxGraphModel dx="990" dy="548" grid="1" gridSize="10" guides="1" tooltips="1" connect="1" arrows="1" fold="1" page="1" pageScale="1" pageWidth="827" pageHeight="1169" math="0" shadow="0">
      <root>
        <mxCell id="0" />
        <mxCell id="1" parent="0" />
        <mxCell id="dNxyNK7c78bLwvsdeMH5-19" value="&lt;div style=&quot;font-family: &amp;#34;consolas&amp;#34; , &amp;#34;courier new&amp;#34; , monospace ; font-weight: normal ; line-height: 27px&quot;&gt;&lt;span style=&quot;font-weight: bold&quot;&gt;&lt;font style=&quot;font-size: 16px&quot;&gt;Order&amp;nbsp;Fullfillment&amp;nbsp;and&amp;nbsp;Customer&amp;nbsp;Service&lt;/font&gt;&lt;/span&gt;&lt;/div&gt;" style="swimlane;html=1;childLayout=stackLayout;resizeParent=1;resizeParentMax=0;horizontal=0;startSize=20;horizontalStack=0;shadow=1;sketch=1;swimlaneFillColor=#B9E0A5;rounded=0;glass=0;" parent="1" vertex="1">
          <mxGeometry x="80" y="120" width="700" height="800" as="geometry">
            <mxRectangle x="120" y="120" width="40" height="370" as="alternateBounds" />
          </mxGeometry>
        </mxCell>
        <mxCell id="e2wK-yW2sYxYP3PSsNnn-22" value="Inventory System" style="swimlane;html=1;startSize=20;horizontal=0;shadow=1;sketch=1;" vertex="1" parent="dNxyNK7c78bLwvsdeMH5-19">
          <mxGeometry x="20" width="680" height="180" as="geometry" />
        </mxCell>
        <mxCell id="dNxyNK7c78bLwvsdeMH5-20" value="Mail-Order/Distribution System" style="swimlane;html=1;startSize=20;horizontal=0;shadow=1;sketch=1;" parent="dNxyNK7c78bLwvsdeMH5-19" vertex="1">
          <mxGeometry x="20" y="180" width="680" height="210" as="geometry">
            <mxRectangle x="20" width="670" height="20" as="alternateBounds" />
          </mxGeometry>
        </mxCell>
        <mxCell id="dNxyNK7c78bLwvsdeMH5-23" value="" style="ellipse;whiteSpace=wrap;html=1;shadow=1;sketch=1;" parent="dNxyNK7c78bLwvsdeMH5-20" vertex="1">
          <mxGeometry x="40" y="40" width="40" height="40" as="geometry" />
        </mxCell>
        <mxCell id="dNxyNK7c78bLwvsdeMH5-21" value="Phone-Order System" style="swimlane;html=1;startSize=20;horizontal=0;shadow=1;sketch=1;" parent="dNxyNK7c78bLwvsdeMH5-19" vertex="1">
          <mxGeometry x="20" y="390" width="680" height="230" as="geometry" />
        </mxCell>
        <mxCell id="dNxyNK7c78bLwvsdeMH5-26" value="" style="rounded=0;whiteSpace=wrap;html=1;fontFamily=Helvetica;fontSize=12;fontColor=#000000;align=center;shadow=1;sketch=1;" parent="dNxyNK7c78bLwvsdeMH5-21" vertex="1">
          <mxGeometry x="150" y="40" width="80" height="60" as="geometry" />
        </mxCell>
        <mxCell id="dNxyNK7c78bLwvsdeMH5-32" value="" style="ellipse;whiteSpace=wrap;html=1;shadow=1;sketch=1;" parent="dNxyNK7c78bLwvsdeMH5-21" vertex="1">
          <mxGeometry x="40" y="50" width="40" height="40" as="geometry" />
        </mxCell>
        <mxCell id="dNxyNK7c78bLwvsdeMH5-22" value="Retail Store" style="swimlane;html=1;startSize=20;horizontal=0;shadow=1;sketch=1;" parent="dNxyNK7c78bLwvsdeMH5-19" vertex="1">
          <mxGeometry x="20" y="620" width="680" height="180" as="geometry" />
        </mxCell>
      </root>
    </mxGraphModel>
  </diagram>
</mxfile>
